<?xml version="1.0" standalone="no"?>
<!DOCTYPE svg PUBLIC "-//W3C//DTD SVG 20010904//EN"
 "http://www.w3.org/TR/2001/REC-SVG-20010904/DTD/svg10.dtd">
<svg version="1.0" xmlns="http://www.w3.org/2000/svg"
 width="1024.000000pt" height="1024.000000pt" viewBox="0 0 1024.000000 1024.000000"
 preserveAspectRatio="xMidYMid meet">
<metadata>
Created by potrace 1.11, written by Peter Selinger 2001-2013
</metadata>
<g transform="translate(0.000000,1024.000000) scale(0.100000,-0.100000)"
fill="#000000" stroke="none">
<path d="M4550 10106 c-80 -23 -142 -59 -197 -113 -84 -85 -131 -201 -124
-313 3 -52 39 -119 80 -148 l36 -26 0 -115 c0 -118 6 -150 50 -267 16 -41 23
-76 20 -110 -1 -27 -6 -105 -10 -174 -4 -69 -8 -141 -10 -160 -2 -19 -6 -96
-9 -170 -4 -74 -9 -151 -11 -170 -2 -19 -7 -93 -10 -165 -4 -71 -8 -148 -10
-170 -2 -22 -6 -101 -10 -175 -4 -74 -8 -151 -10 -170 -2 -19 -6 -91 -10 -160
-4 -69 -8 -145 -10 -170 -2 -25 -6 -101 -10 -170 -12 -254 -17 -283 -67 -387
-40 -84 -124 -166 -229 -225 -137 -76 -211 -152 -277 -283 -66 -131 -62 74
-62 -3002 0 -2477 2 -2795 15 -2848 39 -149 149 -262 310 -316 32 -11 233 -13
1055 -14 558 0 1039 2 1068 6 120 16 266 120 319 229 57 113 53 -108 53 2933
0 3091 4 2870 -63 3012 -62 128 -155 220 -300 297 -152 81 -249 235 -261 418
-7 102 -15 236 -21 345 -3 50 -7 117 -10 150 -2 33 -7 107 -10 165 -3 58 -8
137 -10 175 -2 39 -7 115 -10 170 -3 55 -8 134 -10 175 -3 41 -7 116 -10 165
-3 50 -7 122 -10 160 -3 39 -7 117 -10 175 -5 103 -11 197 -20 334 -4 57 -1
79 19 130 38 94 54 190 52 294 -2 50 0 92 3 92 15 0 79 69 94 102 19 41 22
138 6 189 -47 149 -143 250 -286 298 -55 19 -85 20 -548 20 -362 -1 -502 -4
-535 -13z"/>
</g>
</svg>
